<?xml version="1.0" encoding="UTF-8"?>
<svg id="Layer_2" data-name="Layer 2" xmlns="http://www.w3.org/2000/svg" version="1.1" viewBox="84.9 84.9 347 347">
  <defs>
    <style>
      .cls-1 {
        fill: #fff;
      }

      .cls-1, .cls-2 {
        stroke-width: 0px;
      }

      .cls-2 {
        fill: #2c70ff;
      }
    </style>
  </defs>
  <g id="Layer_1-2" data-name="Layer 1-2">
    <circle class="cls-1" cx="258.4" cy="258.4" r="173.5"/>
    <g>
      <path class="cls-2" d="M360.8,232.9c-28.8-1.4-55.7-17.2-68.2-45-5.5-12.3-17.8-20.4-31.3-20.8-28.6-.8-46.7,35.1-28.7,57.6,6.2,7.8,15.4,12.1,27.5,12.9h0c23.4,1.7,43.5,11.8,56.8,28.5,24.4,30.7,20.9,77.1-7.4,104-34.1,32.5-91.1,25.8-117.1-13.2-2.3-3.5-4.3-7.1-6.1-10.9-5.5-12.3-17.8-20.4-31.3-20.8-13.9-.4-27,4.9-35.3,13.8,27.3,46.9,77.7,78.7,135.9,79.7,88.6,1.5,161.7-69,163.2-157.6.3-14.9-1.6-29.4-5.1-43.2.7,2.9-22.3,10.9-24.8,11.6-9.2,2.7-18.7,3.7-28,3.3h0Z"/>
      <path class="cls-2" d="M156,283.6c29.4.7,56.1,18.5,68.2,45.3,5.5,12.3,17.8,20.4,31.3,20.8,9.4.3,18.3-3.2,25.2-9.7,12.8-12.1,14.5-34.1,3.5-48-6.2-7.8-15.4-12.1-27.5-12.9h0c-23.4-1.7-43.5-11.8-56.8-28.5-29.6-37.2-17-92.5,23.7-115.4,11.8-6.6,25.2-10.2,38.7-9.8,29.4.7,56.1,18.5,68.2,45.3,5.5,12.3,17.8,20.4,31.3,20.8,14,.4,27-4.9,35.3-13.8-27.3-46.9-77.7-78.7-135.9-79.8-88.6-1.5-161.6,69.1-163.2,157.6-.3,14.9,1.6,29.4,5.2,43.2,14.9-10.1,33.3-15.6,52.9-15.2h0Z"/>
    </g>
  </g>
</svg>