<svg width="100%" height="100%" viewBox="0 0 2300 2000" fill="none" xmlns="http://www.w3.org/2000/svg">
<g clip-path="url(#clip0_0_3)">
<path fill-rule="evenodd" clip-rule="evenodd" d="M652.745 2.56899C472.286 39.997 412.095 262.904 491.569 599.455C494.551 612.08 496.655 622.711 496.245 623.078C495.835 623.446 486.725 626.322 476 629.47C356.436 664.566 250.117 712.745 175.014 765.863C57.2949 849.125 7.46594 949.56 32.9869 1052.14C65.0819 1181.14 226.993 1297.51 476 1370.54C486.725 1373.68 495.835 1376.55 496.245 1376.92C496.655 1377.29 494.551 1387.92 491.569 1400.55C438.679 1624.52 446.707 1800.53 514.462 1902.51C547.401 1952.09 590.987 1982.66 648.804 1996.73C664.575 2000.57 730.346 2001.39 750.655 1998C863.391 1979.18 992.45 1902.15 1133.23 1769.66L1150.07 1753.82L1165.28 1768.22C1305.4 1900.81 1436.19 1979.06 1549.34 1997.99C1570.1 2001.47 1635.37 2000.57 1651.87 1996.59C1829.64 1953.67 1887.35 1733.93 1808.42 1400.56C1805.43 1387.94 1803.32 1377.32 1803.74 1376.96C1804.16 1376.59 1815.52 1373.02 1829 1369.02C2075.82 1295.7 2235.08 1180.48 2267.01 1052.14C2284.38 982.349 2266.65 912.29 2215.5 848.497C2146.17 762.035 2007.55 684.024 1829 630.981C1815.52 626.978 1804.16 623.406 1803.74 623.043C1803.32 622.68 1805.43 612.059 1808.42 599.441C1888.02 263.228 1827.32 38.918 1646.87 2.54499C1629.4 -0.977014 1569.53 -1.31001 1549.24 2.00099C1438.7 20.037 1309.71 96.6 1170.74 226.667L1149.99 246.094L1132.71 229.797C993.749 98.757 861.984 20.148 750.907 2.02499C730.96 -1.23001 669.416 -0.889014 652.745 2.56899ZM682.5 96.128C574.71 109.594 531.444 248.889 565.594 472.5C570.681 505.807 589.272 596.335 591.54 598.841C591.71 599.029 602.345 596.921 615.174 594.157C695.21 576.915 804.071 560.366 883.201 553.41C892.259 552.614 890.772 553.936 905.023 534C952.195 468.007 1013.79 391.402 1066.82 332.784L1081.95 316.069L1071.72 306.183C925.558 164.833 776.491 84.385 682.5 96.128ZM1574.26 96.576C1481.85 107.771 1349.61 187.911 1228.32 306.222L1218.13 316.155L1233.21 332.828C1283.64 388.606 1338.43 456.27 1385.06 520.348C1391.36 529.022 1397.68 537.685 1404.02 546.339L1408.53 552.481L1434.52 555.197C1524.05 564.554 1607.82 577.567 1684.87 594.086C1697.72 596.841 1708.36 598.962 1708.5 598.798C1709.08 598.145 1720.16 549.292 1723.95 530.704C1748.09 412.236 1752.29 307.005 1735.9 231.77C1713.97 131.117 1660.22 86.163 1574.26 96.576ZM1135.79 401.75C1113.1 426.912 1090.58 453.3 1063.88 486C1050.62 502.245 1018.88 543.212 1019.26 543.594C1019.45 543.782 1030.15 543.41 1043.05 542.766C1073.56 541.244 1225.63 541.226 1256.98 542.741C1269.89 543.365 1280.59 543.743 1280.75 543.581C1281.44 542.893 1238.53 488.595 1215.1 460.5C1187.71 427.662 1151.7 387 1150.01 387C1149.5 387 1143.11 393.637 1135.79 401.75ZM1093.5 638.676C1051.52 639.538 959.209 643.947 948.739 645.589C945.086 646.163 944.48 646.931 927.62 672.34C864.021 768.193 798.791 881.467 751.748 977.75L740.877 1000L751.748 1022.25C798.825 1118.6 863.721 1231.29 927.63 1327.66C944.48 1353.07 945.086 1353.84 948.739 1354.41C954.121 1355.26 1016.86 1358.8 1047.37 1359.98C1115.66 1362.63 1210.83 1362.21 1277.5 1358.96C1307.28 1357.51 1348.06 1355.03 1351.7 1354.44C1354.61 1353.97 1356.43 1351.62 1372.3 1327.71C1436.24 1231.42 1502.97 1115.44 1549.26 1020.13L1559.16 999.761L1542.62 966.63C1492.07 865.373 1434.42 765.729 1372.32 672.286C1356.43 648.378 1354.62 646.027 1351.7 645.557C1347.83 644.934 1305.59 642.387 1276 640.993C1223.23 638.506 1148.2 637.553 1093.5 638.676ZM794.5 661.548C733.945 670.038 629.583 688.705 619.813 692.794C616.741 694.08 644.52 774.242 671.519 842C685.682 877.546 688.966 885.369 689.498 884.833C689.681 884.65 695.555 873.7 702.551 860.5C734.191 800.81 769.065 740.418 805.159 682.813C819.92 659.255 820.683 657.916 819.25 658.092C818.837 658.142 807.7 659.698 794.5 661.548ZM1480 658.607C1480 658.991 1482.77 663.623 1486.16 668.902C1520.9 723.053 1567.98 804.298 1600.52 866.263C1605.94 876.582 1610.69 884.682 1611.07 884.263C1611.45 883.843 1616.07 872.925 1621.32 860C1650.67 787.836 1683.56 694.299 1680.13 692.777C1670.71 688.601 1562.56 669.323 1504.58 661.485C1494.64 660.141 1485.04 658.787 1483.25 658.475C1481.46 658.164 1480 658.223 1480 658.607ZM499.5 723.904C292.699 787.324 160.285 872.904 129.908 962.772C96.8089 1060.69 199.287 1164.71 408 1245.05C438.261 1256.7 522.206 1284.17 523.483 1282.84C523.661 1282.65 528.182 1269.23 533.528 1253C559.226 1175.01 585.074 1108.27 620.192 1029.23L633.195 999.962L620.071 970.471C585.243 892.21 558.199 822.241 532.44 743.75C527.611 729.038 523.175 717.035 522.58 717.078C521.986 717.122 511.6 720.193 499.5 723.904ZM1763.31 756.25C1737.66 833.118 1709.08 905.954 1674.48 982.687L1666.73 999.874L1679.77 1029.19C1713.38 1104.72 1741.66 1177.64 1765.99 1251.5C1771.6 1268.55 1776.35 1282.65 1776.53 1282.84C1776.71 1283.03 1786.68 1280.24 1798.68 1276.64C2050.18 1201.13 2194.86 1086.65 2174.49 979.278C2158.13 893.032 2038.98 804.526 1854 741.226C1826.03 731.655 1779.43 717 1776.97 717C1776.66 717 1770.52 734.663 1763.31 756.25ZM687.463 1118.64C668.304 1163.33 638.821 1242.47 623.738 1289.69L618.248 1306.88L627.374 1308.98C653.621 1315.04 712.237 1325.97 750.5 1331.95C776.091 1335.95 819.398 1341.9 819.839 1341.48C820.025 1341.3 813.457 1330.43 805.242 1317.33C769.478 1260.27 734.109 1198.99 702.027 1138.5C695.318 1125.85 689.668 1115.34 689.473 1115.14C689.277 1114.94 688.373 1116.52 687.463 1118.64ZM1605.52 1124.23C1569.91 1192.26 1522.25 1274.85 1486.03 1331.29C1482.58 1336.68 1479.92 1341.24 1480.12 1341.42C1480.93 1342.15 1536.56 1334.2 1571.5 1328.38C1611.86 1321.64 1675.49 1309.26 1680.16 1307.22C1683.64 1305.7 1648.85 1207.2 1619.38 1135.13C1615.19 1124.89 1611.44 1116.16 1611.06 1115.73C1610.68 1115.31 1608.19 1119.14 1605.52 1124.23ZM586.107 1423.25C554.027 1559.22 545.948 1677.96 562.994 1763C590.072 1898.09 674.753 1937.18 812.846 1878.34C889.516 1845.67 987.861 1775.54 1071.72 1693.74L1081.94 1683.77L1068.72 1669.14C1039.68 1636.99 1021.63 1616.01 995.876 1584.5C966.883 1549.03 931.106 1502.36 904.121 1464.81C897.918 1456.18 892.316 1448.7 891.671 1448.2C891.027 1447.7 878.575 1446.07 864 1444.59C781.703 1436.21 687.69 1421.58 615.874 1405.99C603.221 1403.25 592.528 1401 592.112 1401C591.696 1401 588.994 1411.01 586.107 1423.25ZM1686 1405.55C1615.41 1421.2 1524.34 1435.42 1434.52 1444.8L1408.53 1447.52L1404.02 1453.66C1397.68 1462.31 1391.36 1470.98 1385.06 1479.65C1338.6 1543.5 1282.73 1612.49 1233.16 1667.19L1218.04 1683.88L1234.77 1699.84C1390.25 1848.18 1542.2 1924.33 1634.93 1900.38C1727.98 1876.34 1765.27 1742.32 1735.89 1537.5C1728.69 1487.26 1710.42 1400.87 1707.06 1401.11C1706.2 1401.18 1696.73 1403.17 1686 1405.55ZM1019.53 1457.1C1020.95 1459.46 1043.58 1488.53 1058.38 1507C1085.19 1540.47 1125.87 1588.1 1143.35 1606.5L1150 1613.5L1156.65 1606.5C1173.7 1588.53 1213.39 1542.15 1239.65 1509.5C1256.33 1488.76 1281.11 1456.78 1280.77 1456.43C1280.61 1456.28 1271.04 1456.57 1259.49 1457.08C1202.68 1459.59 1064.43 1459.15 1027.1 1456.33C1020.05 1455.8 1018.83 1455.93 1019.53 1457.1Z" fill="black"/>
</g>
<defs>
<clipPath id="clip0_0_3">
<rect width="2300" height="2000" fill="white"/>
</clipPath>
</defs>
</svg>
