<svg xmlns="http://www.w3.org/2000/svg" width="100%" height="100%" viewBox="0 0 24 24">
  <path fill="currentColor"
        d="M9.338 2a2 2 0 0 0 .001 4h1.996V4a2 2 0 0 0-1.997-2m0 5.333H4.016a2 2 0 0 0 0 4h5.322a2 2 0 0 0 0-4Z"/>
  <path fill="currentColor"
        d="M21.98 9.333a1.996 1.996 0 1 0-3.993 0v2h1.997a1.998 1.998 0 0 0 1.996-2Zm-5.323 0V4a1.996 1.996 0 1 0-3.992 0v5.333a1.996 1.996 0 1 0 3.992 0Z"
        opacity=".25"/>
  <path fill="currentColor"
        d="M14.661 22a2 2 0 0 0 0-4h-1.996v2a2 2 0 0 0 1.996 2Zm0-5.334h5.323a2 2 0 0 0 0-4h-5.322a2 2 0 0 0-.001 4Z"
        opacity=".7"/>
  <path fill="currentColor"
        d="M2.02 14.666a1.996 1.996 0 1 0 3.993 0v-2H4.016a1.998 1.998 0 0 0-1.996 2Zm5.323 0V20a1.996 1.996 0 1 0 3.992 0v-5.332a1.996 1.996 0 1 0-3.992-.002"
        opacity=".5"/>
</svg>
