<?xml version="1.0" encoding="utf-8"?>
<svg version="1.1" id="Capa_1" xmlns="http://www.w3.org/2000/svg" xmlns:xlink="http://www.w3.org/1999/xlink" x="0px" y="0px"
     viewBox="0 0 1920 1080" style="enable-background:new 0 0 1920 1080;" xml:space="preserve">
<style type="text/css">
	.st0{fill:#202124;}
</style>
  <g>
	<path class="st0" d="M346.5,427.8H387l81.4,219.9h-36.6l-18.3-52.4H320l-18.3,52.4h-36.6L346.5,427.8z M402.5,563.2l-34.9-100h-1.7
		l-34.9,100H402.5z"/>
    <path class="st0" d="M543.3,502.4c36.6,0,63.9,28.4,63.9,62.8v82.5h-32.4v-82.5c0-19.7-13-33.5-31.5-33.5
		c-18.3,0-31.5,13.8-31.5,33.5v82.5h-32.4v-82.5C479.4,530.8,506.7,502.4,543.3,502.4z"/>
    <path class="st0" d="M621.9,577c0-40.5,32.4-74.6,71.2-74.6c16.3,0,31,5.9,39.4,16h1.4v-90.7h32.4v219.9h-32.4V635h-1.4
		c-8.7,10.7-23.4,17.2-39.4,17.2C654.5,652.2,621.9,617.9,621.9,577z M736.2,577c0-25.9-17.2-45.3-40-45.3
		c-23.1,0-41.4,20-41.4,45.3c0,25.6,18.3,45.9,41.4,45.9C719,622.9,736.2,603.2,736.2,577z"/>
    <path class="st0" d="M855.3,502.4c6.5,0,12.4,0.8,15.8,2v28.4c-3.4-0.8-7-1.1-11.8-1.1c-25.9,0-41.4,13-41.4,42.2v73.8h-32.4v-73.8
		C785.4,530,811.3,502.4,855.3,502.4z"/>
    <path class="st0" d="M873,576.7c0-42,32.7-74.3,75.5-74.3s75.5,32.4,75.5,74.3c0,42.2-32.9,75.5-75.5,75.5
		C906.2,652.2,873,619,873,576.7z M991,576.7c0-25.3-18.6-45-42.5-45s-42.5,19.7-42.5,45c0,25.6,18.9,46.2,42.5,46.2
		S991,602.4,991,576.7z"/>
    <path class="st0" d="M1032.6,459.9c0-11.3,9.9-20.8,21.4-20.8s21.1,9.6,21.1,20.8c0,12.1-9.6,22-21.1,22S1032.6,472,1032.6,459.9z
		 M1037.7,506.9h32.4v140.8h-32.4V506.9z"/>
    <path class="st0" d="M1083.9,577c0-40.5,32.4-74.6,71.2-74.6c16.3,0,31,5.9,39.4,16h1.4v-90.7h32.4v219.9h-32.4V635h-1.4
		c-8.7,10.7-23.4,17.2-39.4,17.2C1116.5,652.2,1083.9,617.9,1083.9,577z M1198.2,577c0-25.9-17.2-45.3-40-45.3
		c-23.1,0-41.4,20-41.4,45.3c0,25.6,18.3,45.9,41.4,45.9C1181,622.9,1198.2,603.2,1198.2,577z"/>
    <path class="st0" d="M1381.5,533.9l-66.2-106.1h23.7l55.7,91.2h1.7l56-91.2h23.7l-66.2,106.1l70.4,113.7h-23.7l-60.3-98h-1.7
		l-60,98h-23.7L1381.5,533.9z"/>
    <path class="st0" d="M1508.5,427.8h71.5c35.8,0,65.3,27,65.3,63.6c0,31.3-21.1,56-53.2,62.2v1.7l62.8,92.4h-23.1l-62.8-92.6h-40
		v92.6h-20.6V427.8z M1624.2,491.4c0-26.5-19.4-45.6-44.2-45.6h-51V537h51C1604.7,537,1624.2,517.9,1624.2,491.4z"/>
</g>
</svg>
