<svg xmlns="http://www.w3.org/2000/svg" width="100%" height="100%" viewBox="0 0 1002 162" version="1.1">
  <g id="surface1">
    <path style=" stroke:none;fill-rule:nonzero;fill:rgb(2.745098%,3.921569%,4.705882%);fill-opacity:1;" d="M 615.53125 108.027344 C 615.53125 89.675781 628.765625 75.222656 645.460938 75.222656 C 662.152344 75.222656 674.367188 89.28125 674.367188 108.027344 C 674.367188 126.773438 661.957031 141.246094 645.460938 141.246094 C 628.964844 141.246094 615.53125 126.574219 615.53125 108.027344 Z M 558.109375 159.179688 L 581.527344 159.179688 L 581.527344 57.289062 L 558.109375 57.289062 L 558.109375 159.1875 Z M 554.445312 23.242188 C 554.445312 31.996094 561.566406 39.148438 569.914062 39.148438 C 578.265625 39.148438 585.191406 32.023438 585.191406 23.242188 C 585.191406 15.101562 578.265625 8.164062 569.914062 8.164062 C 561.566406 8.164062 554.445312 15.101562 554.445312 23.242188 Z M 462.597656 107.816406 C 462.597656 89.464844 476.027344 75.203125 493.347656 75.203125 C 510.65625 75.203125 524.09375 89.460938 524.09375 107.816406 C 524.09375 126.160156 510.449219 141.246094 493.347656 141.246094 C 476.246094 141.246094 462.597656 126.363281 462.597656 107.816406 Z M 438.773438 107.816406 C 438.773438 138.386719 462.804688 162.4375 493.355469 162.4375 C 523.914062 162.4375 547.933594 138.386719 547.933594 107.808594 C 547.933594 77.238281 524.324219 54.007812 493.355469 54.007812 C 462.398438 54.007812 438.785156 77.453125 438.785156 107.816406 Z M 375.441406 159.1875 L 398.847656 159.1875 L 398.847656 105.792969 C 398.847656 84.601562 410.050781 75.222656 428.777344 75.222656 C 432.253906 75.222656 434.886719 75.421875 437.332031 76.039062 L 437.332031 55.464844 C 434.886719 54.640625 430.613281 54.027344 425.933594 54.027344 C 394.167969 54.027344 375.441406 74.007812 375.441406 105.792969 Z M 281.570312 108.027344 C 281.570312 89.675781 294.8125 75.222656 311.5 75.222656 C 328.191406 75.222656 340.414062 89.28125 340.414062 108.027344 C 340.414062 126.773438 327.992188 141.246094 311.503906 141.246094 C 295.015625 141.246094 281.578125 126.574219 281.578125 108.027344 Z M 257.75 108.027344 C 257.75 137.582031 281.359375 162.4375 309.265625 162.4375 C 320.875 162.4375 331.46875 157.753906 337.78125 149.996094 L 338.796875 149.996094 L 338.796875 159.15625 L 362.234375 159.15625 L 362.234375 0.00390625 L 338.816406 0.00390625 L 338.816406 65.632812 L 337.800781 65.632812 C 331.691406 58.289062 321.101562 54.019531 309.277344 54.019531 C 281.175781 54.019531 257.757812 78.679688 257.757812 108.03125 Z M 155.113281 159.179688 L 178.53125 159.179688 L 178.53125 99.464844 C 178.53125 85.210938 188.101562 75.222656 201.339844 75.222656 C 214.574219 75.222656 224.148438 85.210938 224.148438 99.46875 L 224.148438 159.1875 L 247.5625 159.1875 L 247.5625 99.46875 C 247.5625 74.601562 227.8125 54.027344 201.339844 54.027344 C 174.867188 54.027344 155.113281 74.609375 155.113281 99.46875 L 155.113281 159.1875 Z M 47.601562 98.039062 L 72.863281 25.699219 L 74.078125 25.699219 L 99.324219 98.039062 Z M -0.0546875 159.179688 L 26.425781 159.179688 L 39.65625 121.265625 L 107.261719 121.265625 L 120.5 159.179688 L 146.976562 159.179688 L 88.125 0.015625 L 58.808594 0.015625 Z M 643.214844 162.4375 C 654.824219 162.4375 665.417969 157.753906 671.734375 149.996094 L 672.75 149.996094 L 672.75 159.15625 L 696.167969 159.15625 L 696.167969 0.00390625 L 672.75 0.00390625 L 672.75 65.632812 L 671.734375 65.632812 C 665.632812 58.289062 655.042969 54.019531 643.214844 54.019531 C 615.117188 54.019531 591.699219 78.679688 591.699219 108.03125 C 591.699219 137.390625 615.3125 162.445312 643.214844 162.445312 Z M 749.742188 159.3125 L 756.984375 148.300781 L 811.886719 65.101562 L 813.664062 65.101562 L 854.320312 2.8125 L 856.089844 0.0273438 L 874.363281 0.0273438 L 866.894531 11.15625 L 814.996094 89.128906 L 813.875 89.128906 L 769.445312 156.542969 L 767.671875 159.332031 L 749.742188 159.332031 Z M 859.988281 159.3125 L 858.09375 156.535156 L 813.664062 88.996094 L 812.335938 88.996094 L 760.433594 11.230469 L 752.964844 0 L 771.449219 0 L 773.34375 2.886719 L 813.988281 65.183594 L 815.671875 65.183594 L 871.027344 148.058594 L 878.488281 159.296875 L 860.003906 159.296875 Z M 893.863281 159.3125 L 893.863281 0.015625 L 945.644531 0.015625 C 959.378906 0.015625 970.992188 4.359375 980.441406 13.023438 C 989.902344 21.695312 994.636719 32.820312 994.636719 46.410156 C 994.636719 59.988281 989.882812 71.65625 980.375 80.554688 C 970.871094 89.460938 958.175781 93.910156 942.296875 93.910156 L 901.757812 93.910156 L 901.757812 79.785156 L 944.746094 79.785156 C 954.460938 79.785156 962.664062 76.664062 969.363281 70.441406 C 976.039062 64.210938 979.378906 56.191406 979.378906 46.40625 C 979.378906 37.207031 976.171875 29.570312 969.738281 23.484375 C 963.308594 17.414062 955.3125 14.371094 945.746094 14.371094 L 908.878906 14.371094 L 908.878906 159.320312 L 893.851562 159.320312 Z M 983.171875 159.3125 L 981.402344 156.535156 L 935.402344 86.558594 L 951.878906 85.664062 L 993.980469 148.183594 L 1001.558594 159.316406 L 983.171875 159.316406 Z M 983.171875 159.3125 "/>
  </g>
</svg>
