<svg width="100%" height="100%" viewBox="0 0 551 549" fill="none" xmlns="http://www.w3.org/2000/svg">
  <path d="M238.501 21.0291L5.76024 422.307C-10.5601 450.44 9.74066 485.683 42.2699 485.683H507.751C540.274 485.683 560.575 450.44 544.26 422.307L311.52 21.0291C295.258 -7.00971 254.768 -7.00971 238.506 21.0291H238.501Z" fill="#33A852"/>
  <path d="M275.009 0.294434H270.021C257.569 1.74825 245.675 8.6539 238.5 21.029L5.75928 422.307C3.16233 426.786 1.49747 431.44 0.65918 436.107V450.768C4.06511 469.756 20.403 485.683 42.2689 485.683H275.009V0.294434Z" fill="#239F44"/>
  <path d="M248.296 184.678L67.9168 504.366C67.7351 504.689 67.5592 505.011 67.3892 505.339C54.8793 529.374 78.8381 556.235 104.391 547.213L275.004 486.991L445.617 547.213C471.171 556.235 495.129 529.374 482.619 505.339C482.449 505.017 482.273 504.689 482.092 504.366L301.712 184.684C289.976 163.891 260.021 163.891 248.29 184.684L248.296 184.678Z" fill="#F2F2F3"/>
  <mask id="mask0_23_1299" style="mask-type:alpha" maskUnits="userSpaceOnUse" x="0" y="0" width="551" height="486">
    <path d="M238.501 21.0291L5.76024 422.307C-10.5601 450.44 9.74066 485.683 42.2699 485.683H507.751C540.274 485.683 560.575 450.44 544.26 422.307L311.52 21.0291C295.258 -7.00971 254.768 -7.00971 238.506 21.0291H238.501Z" fill="#33A852"/>
  </mask>
  <g mask="url(#mask0_23_1299)">
    <path d="M275.011 169.125V564.822H591.569V485.683L299.632 181.436L275.011 169.125Z" fill="url(#paint0_linear_23_1299)"/>
  </g>
  <path d="M275.01 486.984L445.623 547.206C471.176 556.228 495.135 529.368 482.625 505.333C482.455 505.01 482.279 504.682 482.098 504.36L301.718 184.677C296.108 174.729 286.324 169.553 276.359 169.125H275.004V486.984H275.01Z" fill="#E3E3E3"/>
  <defs>
    <linearGradient id="paint0_linear_23_1299" x1="431.824" y1="483.15" x2="279.085" y2="362.284" gradientUnits="userSpaceOnUse">
      <stop stop-color="#33A852"/>
      <stop offset="0.76" stop-color="#239F44"/>
    </linearGradient>
  </defs>
</svg>
