<?xml version="1.0" encoding="utf-8"?>
<svg version="1.1" id="Layer_1" xmlns="http://www.w3.org/2000/svg" xmlns:xlink="http://www.w3.org/1999/xlink" x="0px" y="0px"
     viewBox="0 0 2552 419" style="enable-background:new 0 0 2552 419;" xml:space="preserve">
<style type="text/css">
	.st0{fill:#202124;}
</style>
  <g>
	<path class="st0" d="M1597.7,278c0-47.2,34.4-84.4,77.7-84.4s75,36.2,75,84.4s-32.2,85.5-75,85.5
		C1632.6,363.5,1597.7,325.7,1597.7,278z M1448.7,409.6h60.8V147.4h-60.8V409.6z M1439.2,59.8c0,22.6,18.5,40.9,40.2,40.9
		c21.7,0,39.6-18.4,39.6-40.9c0-21-18-38.8-39.6-38.8C1457.7,21,1439.2,38.8,1439.2,59.8z M1200.8,277.4c0-47.2,34.9-83.9,79.8-83.9
		c44.9,0,79.8,36.7,79.8,83.9s-35.4,86-79.8,86C1236.2,363.5,1200.8,325.2,1200.8,277.4z M1139,277.4c0,78.7,62.4,140.6,141.6,140.6
		c79.3,0,141.7-61.9,141.7-140.6S1360.9,139,1280.6,139C1200.3,139,1139,199.3,1139,277.4z M974.6,409.6h60.8V272.2
		c0-54.5,29.1-78.7,77.7-78.7c9,0,15.8,0.5,22.2,2.1v-53c-6.3-2.1-17.4-3.7-29.6-3.7c-82.4,0-131.1,51.4-131.1,133.2V409.6z
		 M730.9,278c0-47.2,34.4-84.4,77.7-84.4c43.3,0,75.1,36.2,75.1,84.4s-32.2,85.5-75.1,85.5C765.8,363.5,730.9,325.7,730.9,278z
		 M669.1,278c0,76,61.3,140,133.7,140c30.1,0,57.6-12.1,74-32h2.6v23.6h60.8V0h-60.8v168.9h-2.6C861,150,833.5,139,802.8,139
		C729.9,139,669.1,202.4,669.1,278z M402.7,409.6h60.8V255.9c0-36.7,24.8-62.4,59.2-62.4c34.4,0,59.2,25.7,59.2,62.4v153.7h60.8
		V255.9c0-64-51.3-117-120-117c-68.7,0-120,53-120,117V409.6z M123.7,252.3l65.5-186.2h3.2l65.5,186.2H123.7z M0,409.6h68.7
		l34.4-97.6h175.5l34.4,97.6h68.7L228.8,0h-76.1L0,409.6z M1669.6,418c30.1,0,57.6-12.1,74-32h2.6v23.6h60.8V0h-60.8v168.9h-2.6
		c-15.8-18.9-43.3-29.9-74-29.9c-72.9,0-133.7,63.5-133.7,139S1597.2,418,1669.6,418z"/>
    <path class="st0" d="M2510.8,0l-130,371.5h-7.1L2243.7,0h-41.2L2353,418.1h11.5h25.6h11.4L2552,0H2510.8z"/>
    <path class="st0" d="M2178.3,0h-271v34.2h118.5v383.7h34.1V34.2h118.5V0z"/>
</g>
</svg>
