<svg xmlns="http://www.w3.org/2000/svg" width="100%" height="100%" viewBox="0 0 800 138">
<g>
	<path d="M43.714,44.202c12.974,0,23.79,6.668,28.827,13.874V46.002h19.816v90.08H78.899c-3.511,0-6.358-2.842-6.358-6.357v-5.705
		c-5.037,7.2-15.853,13.863-28.827,13.863c-24.674,0-43.417-21.074-43.417-46.838S19.04,44.202,43.714,44.202 M47.319,62.221
		c-16.037,0-26.848,12.608-26.848,28.824c0,16.211,10.811,28.827,26.848,28.827c16.032,0,26.848-12.616,26.848-28.827
		C74.167,74.829,63.352,62.221,47.319,62.221"/>
  <path d="M114.863,46.005h19.821v12.25c5.4-9.005,15.674-14.05,27.385-14.05c20.895,0,34.411,14.773,34.411,37.655v54.222h-13.463
		c-3.51,0-6.358-2.847-6.358-6.357V85.103c0-14.231-7.21-22.879-18.732-22.879c-13.153,0-23.242,10.269-23.242,29.542v44.316
		h-13.469c-3.505,0-6.353-2.847-6.353-6.357V46.005z"/>
  <path d="M255.575,44.202c12.969,0,23.785,6.668,28.827,13.874V0.967h19.811v135.115h-13.458c-3.505,0-6.353-2.842-6.353-6.357
		v-5.705c-5.042,7.2-15.858,13.863-28.827,13.863c-24.685,0-43.421-21.074-43.421-46.838S230.891,44.202,255.575,44.202
		 M259.181,62.221c-16.032,0-26.843,12.608-26.843,28.824c0,16.211,10.811,28.827,26.843,28.827
		c16.026,0,26.837-12.616,26.837-28.827C286.018,74.829,275.207,62.221,259.181,62.221"/>
  <path d="M326.724,46.005h19.816v16.034c3.421-10.269,13.511-16.934,23.784-16.934c2.516,0,5.047,0.182,7.748,0.721v20.356
		c-3.432-1.082-6.305-1.621-9.905-1.621c-11.353,0-21.626,9.553-21.626,27.568v43.953h-13.463c-3.505,0-6.353-2.847-6.353-6.357
		V46.005z"/>
  <path d="M431.504,137.883c-26.658,0-47.2-20.722-47.2-46.833c0-26.124,20.542-46.848,47.2-46.848
		c26.669,0,47.201,20.719,47.201,46.848C478.705,117.161,458.173,137.883,431.504,137.883 M431.504,119.514
		c15.854,0,27.027-12.437,27.027-28.464c0-16.031-11.174-28.468-27.027-28.468c-16.031,0-27.2,12.437-27.2,28.468
		C404.304,107.077,415.473,119.514,431.504,119.514"/>
  <path d="M504.674,26.37c-7.205,0-13.332-5.939-13.332-13.334c0-7.206,6.127-13.15,13.332-13.15c7.384,0,13.152,5.945,13.152,13.15
		C517.826,20.431,512.058,26.37,504.674,26.37 M494.773,46.002h19.811v90.08h-13.458c-3.511,0-6.353-2.853-6.353-6.357V46.002z"/>
  <path d="M574.285,44.202c12.974,0,23.785,6.668,28.832,13.874V0.967h19.816v135.115h-13.458c-3.517,0-6.358-2.842-6.358-6.357
		v-5.705c-5.047,7.2-15.858,13.863-28.832,13.863c-24.674,0-43.411-21.074-43.411-46.838S549.611,44.202,574.285,44.202
		 M577.891,62.221c-16.026,0-26.837,12.608-26.837,28.824c0,16.211,10.811,28.827,26.837,28.827
		c16.037,0,26.848-12.616,26.848-28.827C604.738,74.829,593.928,62.221,577.891,62.221"/>
  <path d="M657.387,57.463h-19.39V45.51h19.39V20.323h12.679V45.51h26.453v11.953h-26.453v52.361
		c0,11.048,4.896,15.395,15.037,15.395c3.621,0,8.517-0.726,11.416-1.989v11.411c-4.174,1.632-8.516,2.357-13.41,2.357
		c-15.396,0-25.722-8.884-25.722-26.095V57.463z"/>
  <polygon points="799.604,45.507 757.215,136.093 747.251,136.093 704.855,45.507 718.987,45.507 752.141,117.43 785.294,45.507
		"/>
</g>
</svg>
