<svg version="1.1" xmlns="http://www.w3.org/2000/svg" xmlns:xlink="http://www.w3.org/1999/xlink" x="0px" y="0px"
     width="100%" height="100%" viewBox="0 0 192 192" enable-background="new 0 0 192 192" xml:space="preserve">
<g>
	<g>
		<circle fill="#00A94B" cx="146.55" cy="88.2" r="18.27"/>
	</g>
  <g>
		<circle fill="#FF4131" cx="166.91" cy="50.65" r="17.08"/>
	</g>
  <g>
		<path fill="#FFBC00" d="M122.42,167.91c-6.54,0-12.78-3.78-15.61-10.14L62.08,57.31c-3.84-8.62,0.04-18.71,8.65-22.55
			c8.61-3.83,18.71,0.04,22.55,8.65l44.73,100.47c3.84,8.62-0.04,18.71-8.65,22.55C127.1,167.44,124.74,167.91,122.42,167.91z"/>
	</g>
  <g>
		<path fill="#0085F7" d="M69.61,167.64c-7.11,0-13.9-4.11-16.98-11.02L9.45,59.64c-4.17-9.37,0.04-20.35,9.41-24.52
			c9.37-4.17,20.35,0.04,24.52,9.41l43.18,96.98c4.17,9.37-0.04,20.35-9.41,24.52C74.7,167.12,72.13,167.64,69.61,167.64z"/>
	</g>
</g>
</svg>
