<svg width="100%" height="100%" xmlns="http://www.w3.org/2000/svg" viewBox="0 0 24 24">
  <path fill="#000000" fill-rule="evenodd"
        d="M5 1a4 4 0 0 0-4 4v14a4 4 0 0 0 4 4h14a4 4 0 0 0 4-4V5a4 4 0 0 0-4-4zm15 6.455a1.455 1.455 0 1 1-2.909 0a1.455 1.455 0 0 1 2.909 0m-2.182 3.636a1.454 1.454 0 1 1-2.909 0a1.454 1.454 0 0 1 2.91 0ZM6.778 7.212a1.455 1.455 0 1 0-2.645 1.212l4 8.727a1.455 1.455 0 1 0 2.644-1.212l-4-8.727Zm3.162-.716a1.455 1.455 0 0 1 1.928.716l4 8.727a1.455 1.455 0 1 1-2.645 1.212l-4-8.727a1.455 1.455 0 0 1 .717-1.928"
        clip-rule="evenodd"/>
</svg>
