<svg fill="#6b7280" height="100%" viewBox="0 0 24 24" width="100%" xmlns="http://www.w3.org/2000/svg">
  <path d="m12 21.933c-5.477 0-9.933-4.456-9.933-9.934 0-5.477 4.456-9.933 9.933-9.933s9.933 4.457 9.933 9.934-4.456 9.933-9.933 9.933zm0-18.866c-4.926 0-8.933 4.007-8.933 8.933s4.007 8.933 8.933 8.933 8.933-4.008 8.933-8.934-4.007-8.932-8.933-8.932z"/>
  <path d="m11.497 6.001c0-.65 1-.64 1 0v4.8c1.13-1.13 2.26-2.27 3.39-3.4.46-.45 1.17.25.71.71l-4.26 4.25c-.19.18-.41.17-.58.07-.01-.02-.02-.02-.03-.02-.11-.06-.2-.17-.22-.33z"/>
</svg>
