<svg height="100%" width="100%" xmlns="http://www.w3.org/2000/svg" viewBox="0 0 24 24">
  <path class="fill-current text-slate-600" d="M19.714 14.7l-7.007 7.007-1.414-1.414 7.007-7.007c-.195-.4-.298-.84-.3-1.286a3 3 0 113 3 2.969 2.969 0 01-1.286-.3z"/>
  <path class="fill-current text-slate-400" d="M10.714 18.3c.4-.195.84-.298 1.286-.3a3 3 0 11-3 3c.002-.446.105-.885.3-1.286l-6.007-6.007 1.414-1.414 6.007 6.007z"/>
  <path class="fill-current text-slate-600" d="M5.7 10.714c.195.4.298.84.3 1.286a3 3 0 11-3-3c.446.002.885.105 1.286.3l7.007-7.007 1.414 1.414L5.7 10.714z"/>
  <path class="fill-current text-slate-400" d="M19.707 9.292a3.012 3.012 0 00-1.415 1.415L13.286 5.7c-.4.195-.84.298-1.286.3a3 3 0 113-3 2.969 2.969 0 01-.3 1.286l5.007 5.006z"/>
</svg>
