<svg viewBox="0 0 24 24" xmlns="http://www.w3.org/2000/svg"><path d="m19.714 14.7-7.007 7.007-1.414-1.414 7.007-7.007c-.195-.4-.298-.84-.3-1.286a3 3 0 1 1 3 3 2.969 2.969 0 0 1 -1.286-.3z"/><path d="m10.714 18.3c.4-.195.84-.298 1.286-.3a3 3 0 1 1 -3 3c.002-.446.105-.885.3-1.286l-6.007-6.007 1.414-1.414z"/><path d="m5.7 10.714c.195.4.298.84.3 1.286a3 3 0 1 1 -3-3c.446.002.885.105 1.286.3l7.007-7.007 1.414 1.414z"/><path d="m19.707 9.292a3.012 3.012 0 0 0 -1.415 1.415l-5.006-5.007c-.4.195-.84.298-1.286.3a3 3 0 1 1 3-3 2.969 2.969 0 0 1 -.3 1.286z"/></svg>