<?xml version="1.0" encoding="utf-8"?>
<!-- Generator: Adobe Illustrator 24.1.1, SVG Export Plug-In . SVG Version: 6.00 Build 0)  -->
<svg version="1.1" id="Layer_1" xmlns="http://www.w3.org/2000/svg" xmlns:xlink="http://www.w3.org/1999/xlink" x="0px" y="0px"
	 viewBox="0 0 512 512" style="enable-background:new 0 0 512 512;" xml:space="preserve">
<g>
	<path d="M321.2,219.2l122.1,122.1L321.2,463.4c-11.1,11.1-11.1,29.1,0,40.2s29.1,11.1,40.2,0l142.2-142.2
		c5.3-5.3,8.3-12.6,8.3-20.1c0-7.5-3-14.8-8.3-20.1L361.4,179c-11.1-11.1-29.1-11.1-40.2,0S310.1,208.1,321.2,219.2L321.2,219.2z"/>
	<path d="M0,28.4v199.1c0,78.6,63.7,142.2,142.2,142.2h341.3c15.7,0,28.4-12.7,28.4-28.4c0-15.7-12.7-28.4-28.4-28.4l-341.3,0
		c-47.1-0.1-85.2-38.2-85.3-85.3V28.4C56.9,12.7,44.2,0,28.4,0C12.7,0,0,12.7,0,28.4z"/>
</g>
</svg>
