<svg enable-background="new 0 0 512 512" viewBox="0 0 512 512" xmlns="http://www.w3.org/2000/svg"><path d="m321.2 219.2 122.1 122.1-122.1 122.1c-11.1 11.1-11.1 29.1 0 40.2s29.1 11.1 40.2 0l142.2-142.2c5.3-5.3 8.3-12.6 8.3-20.1s-3-14.8-8.3-20.1l-142.2-142.2c-11.1-11.1-29.1-11.1-40.2 0s-11.1 29.1 0 40.2z"/><path d="m0 28.4v199.1c0 78.6 63.7 142.2 142.2 142.2h341.3c15.7 0 28.4-12.7 28.4-28.4s-12.7-28.4-28.4-28.4h-341.3c-47.1-.1-85.2-38.2-85.3-85.3v-199.2c0-15.7-12.7-28.4-28.5-28.4-15.7 0-28.4 12.7-28.4 28.4z"/></svg>