<svg xmlns="http://www.w3.org/2000/svg" width="100%" height="100%" viewBox="0 0 290 290" ><path d="M285 83c0-3.4-.1-6-.1-8.4-.1-5.5-.5-11.9-1.6-18.4-1.2-6.5-3.1-12.2-5.8-17.6-2.8-5.6-6.5-10.6-10.9-15s-9.5-8.1-15-10.9c-5.4-2.7-11.2-4.6-17.6-5.8-6.5-1.2-12.9-1.5-18.4-1.6-2.6-.2-5.2-.3-8.6-.3H83c-3.4 0-6 .1-8.4.1-5.5.1-11.9.5-18.4 1.6-6.5 1.2-12.2 3.1-17.6 5.8C33 15.3 28 19 23.6 23.4s-8.1 9.5-10.9 15C10 43.8 8.1 49.6 6.9 56c-1.2 6.5-1.5 12.9-1.6 18.4C5.1 77 5 79.6 5 83v124.1c0 3.4.1 6 .1 8.4.1 5.5.5 11.9 1.6 18.4 1.2 6.5 3.1 12.2 5.8 17.6 2.8 5.6 6.5 10.6 10.9 15s9.5 8.1 15 10.9c5.4 2.7 11.2 4.6 17.6 5.8 6.5 1.2 12.9 1.5 18.4 1.6 2.4.1 5 .1 8.4.1H206.9c3.4 0 6-.1 8.4-.1 5.5-.1 11.9-.5 18.4-1.6 6.5-1.2 12.2-3.1 17.6-5.8 5.6-2.8 10.6-6.5 15-10.9s8.1-9.5 10.9-15c2.7-5.4 4.6-11.2 5.8-17.6 1.2-6.5 1.5-12.9 1.6-18.4.1-2.4.1-5 .1-8.4V92.3c.3-3 .3-6.2.3-9.3zm-18.2 113.1v-50.2h16.4v50.2h-16.4zM23.2 93.9v50.2H6.8V93.9h16.4zm196.4 50.2c-.2-19.4-7.9-37.1-20.4-50.2h54.3c7.3 15.5 11.3 32.6 11.4 50.2h-45.3zm-37.8-37.2c-6.3-6.1-14.2-10.7-22.9-13h36l-13.1 13zm-73.6 73.6c-8.7-9-14.1-21.2-14.3-34.6h48.9l-34.6 34.6zm34.6-36.4H93.9c.2-13.4 5.7-25.6 14.4-34.6l34.5 34.6zm-33.3-35.9c9-8.7 21.2-14.1 34.6-14.4v48.9l-34.6-34.5zm36.4-14.3c13.4.2 25.6 5.6 34.6 14.3l-34.6 34.6V93.9zm-37.7 13l-13-13h36c-8.8 2.3-16.6 6.9-23 13zm-1.3 1.3c-6.1 6.3-10.7 14.2-13.1 22.9v-36l13.1 13.1zm0 73.6l-13 13v-36c2.3 8.8 6.9 16.7 13 23zm1.3 1.3c6.3 6.1 14.1 10.6 22.8 13H95.2l13-13zm1.3-1.3l34.6-34.6v48.9h-1.4c-12.9-.5-24.5-5.9-33.2-14.3zm36.4 14.3v-48.9l34.6 34.6c-8.7 8.4-20.3 13.7-33.2 14.3h-1.4zm35.9-13l13 13H159c8.8-2.3 16.5-6.9 22.8-13zm1.3-1.3c6.1-6.3 10.6-14.1 13-22.8v35.8l-13-13zm-1.3-1.3l-34.6-34.6h48.9v1.5c-.5 12.8-5.9 24.5-14.3 33.1zm14.3-36.4h-48.9l34.6-34.6c8.4 8.7 13.7 20.3 14.3 33.2v1.4zm-13-35.9l13-13V131c-2.3-8.7-6.9-16.5-13-22.8zM145.9 92V72.3c18.9.2 36.1 7.7 48.9 19.7h-48.9zm-1.8 0H95.2c12.8-12 30-19.5 48.8-19.7l.1 19.7zM92 144.1H72.3c.2-18.9 7.7-36 19.7-48.8v48.8zm0 1.8v48.9c-12.1-12.8-19.5-30-19.7-48.9H92zm50.6 52.1h1.4v19.8c-18.9-.2-36.1-7.7-48.9-19.8h47.5zm3.3 0h49c-12.8 12.1-30 19.6-49 19.8V198zm52.1-50.6v-1.5h19.8c-.2 18.9-7.7 36.1-19.8 49v-47.5zm0-3.3V95.2c12.1 12.8 19.6 30 19.8 48.9H198zm1.3-52.1l31.1-31.1c9.1 9.3 16.6 19.8 22.2 31.1h-53.3zm-1.3-1.3V37.4c11.4 5.6 21.9 13 31.1 22.2L198 90.7zm-1.9 0c-13.2-12.4-30.8-20.1-50.2-20.3V25.1c17.7.1 34.7 4 50.2 11.4v54.2zm-52-20.3c-19.4.2-37.1 7.9-50.2 20.4V36.5c15.5-7.3 32.6-11.3 50.2-11.4v45.3zM92 90.7L60.9 59.6C70.2 50.5 80.7 43 92 37.4v53.3zM90.7 92H37.4c5.6-11.3 13-21.8 22.2-31.1L90.7 92zm.1 1.9c-12.4 13.2-20.1 30.8-20.4 50.2H25.1c.1-17.7 4.1-34.7 11.4-50.2h54.3zm-20.4 52c.2 19.4 7.9 37.1 20.3 50.2H36.5c-7.3-15.5-11.2-32.6-11.4-50.2h45.3zM90.7 198l-31.1 31.1c-9.1-9.3-16.6-19.8-22.2-31.1h53.3zm1.3 1.3v53.3c-11.4-5.6-21.9-13.1-31.1-22.2L92 199.3zm1.9 0c13.2 12.4 30.8 20.1 50.2 20.4V265c-17.7-.1-34.7-4.1-50.2-11.4v-54.3zm52 20.3c19.4-.2 37.1-7.9 50.2-20.3v54.2c-15.5 7.3-32.6 11.2-50.2 11.4v-45.3zm52.1-20.3l31.2 31.2c-9.3 9.1-19.8 16.6-31.2 22.2v-53.4zm1.3-1.3h53.4c-5.6 11.4-13.1 21.9-22.2 31.2L199.3 198zm0-1.9c12.4-13.2 20.1-30.8 20.3-50.2h45.3c-.1 17.7-4 34.7-11.4 50.2h-54.2zm56.3-102.2h9.4v29.9c-1.9-10.4-5-20.5-9.4-29.9zm-.9-1.9c-5.7-11.9-13.4-22.8-23-32.4l33.2-33.2V92h-10.2zm-24.3-33.7c-9.6-9.5-20.6-17.2-32.4-22.9V25.1h65.6l-33.2 33.2zm-34.3-23.8c-9.6-4.4-19.7-7.6-30.2-9.4h30.2v9.4zm-50.2-11.3V6.8h50.2v16.4h-50.2zm-1.8 0H93.9V6.8h50.2v16.4zm-20 1.9c-10.5 1.8-20.7 5-30.2 9.4v-9.4h30.2zM92 35.4c-11.8 5.7-22.8 13.4-32.4 22.9L26.4 25.1H92v10.3zM58.3 59.6C48.8 69.2 41.1 80.2 35.4 92H25.1V26.4l33.2 33.2zM34.5 93.9c-4.4 9.6-7.6 19.7-9.4 30.2V93.9h9.4zm-11.3 52v50.2H6.8v-50.2h16.4zm1.9 20.1c1.8 10.5 5 20.6 9.4 30.2h-9.4V166zm10.2 32c5.7 11.8 13.4 22.8 22.9 32.4L25 263.6V198h10.3zm24.3 33.7c9.6 9.5 20.6 17.2 32.4 23V265H26.4l33.2-33.3zm34.3 23.9c9.5 4.4 19.5 7.6 29.9 9.4H93.9v-9.4zm50.2 11.2v16.4H93.9v-16.4h50.2zm1.8 0h50.2v16.4h-50.2v-16.4zm20.4-1.9c10.4-1.8 20.4-5 29.9-9.4v9.4h-29.9zm31.7-10.2c11.9-5.7 22.8-13.4 32.5-23l33.2 33.2H198v-10.2zm33.8-24.2c9.5-9.7 17.2-20.6 23-32.5H265v65.6l-33.2-33.1zm23.8-34.4c4.4-9.5 7.5-19.5 9.4-29.9v29.9h-9.4zm11.2-52V93.9h16.4v50.2h-16.4zm14.6-87.6c1.1 6.4 1.4 12.7 1.6 18.1.1 2.4.1 5 .1 8.4v9h-16.4V26.4c3.6 3.9 6.6 8.2 9 12.9 2.8 5.3 4.6 10.9 5.7 17.2zM207 6.9c3.4 0 5.9.1 8.4.1 5.4.1 11.8.4 18.1 1.6 6.3 1.1 11.9 3 17.1 5.6 4.7 2.4 9.1 5.4 12.9 9H198V6.8h.5c2.9 0 5.7 0 8.5.1zM39.3 14.2c5.2-2.7 10.8-4.5 17.1-5.6C62.8 7.4 69.2 7.1 74.6 7c2.4-.1 5-.1 8.4-.1h9v16.4H26.4c3.9-3.7 8.2-6.7 12.9-9.1zM7 74.6c.1-5.4.4-11.8 1.6-18.1 1.1-6.3 3-11.9 5.6-17.1 2.4-4.7 5.4-9 9-12.9V92H6.8v-9c.1-3.4.1-6 .2-8.4zm1.6 158.9c-1.1-6.4-1.4-12.7-1.6-18.1-.1-2.4-.1-5-.1-8.4v-9h16.4v65.6c-3.6-3.9-6.6-8.2-9-12.9-2.8-5.3-4.6-10.9-5.7-17.2zM83 283.1c-3.4 0-6-.1-8.4-.1-5.4-.1-11.8-.4-18.1-1.6-6.3-1.1-11.9-3-17.1-5.6-4.7-2.4-9.1-5.4-12.9-9H92v16.4h-.1c-3.2 0-6 0-8.9-.1zm167.6-7.3c-5.2 2.7-10.8 4.5-17.1 5.6-6.4 1.1-12.7 1.4-18.1 1.6-2.4.1-5 .1-8.4.1h-9v-16.4h65.6c-3.9 3.7-8.2 6.7-13 9.1zm32.4-60.4c-.1 5.4-.4 11.8-1.6 18.1-1.1 6.3-3 11.9-5.6 17.1-2.4 4.7-5.4 9-9 12.9V198h16.4v9c-.1 3.4-.1 6-.2 8.4z"></path></svg>
