<svg width="100%" height="100%" viewBox="0 0 290 290" xmlns="http://www.w3.org/2000/svg"><path d="m285 83c0-3.4-.1-6-.1-8.4-.1-5.5-.5-11.9-1.6-18.4-1.2-6.5-3.1-12.2-5.8-17.6-2.8-5.6-6.5-10.6-10.9-15s-9.5-8.1-15-10.9c-5.4-2.7-11.2-4.6-17.6-5.8-6.5-1.2-12.9-1.5-18.4-1.6-2.6-.2-5.2-.3-8.6-.3h-124c-3.4 0-6 .1-8.4.1-5.5.1-11.9.5-18.4 1.6-6.5 1.2-12.2 3.1-17.6 5.8-5.6 2.8-10.6 6.5-15 10.9s-8.1 9.5-10.9 15c-2.7 5.4-4.6 11.2-5.8 17.6-1.2 6.5-1.5 12.9-1.6 18.4-.2 2.6-.3 5.2-.3 8.6v124.1c0 3.4.1 6 .1 8.4.1 5.5.5 11.9 1.6 18.4 1.2 6.5 3.1 12.2 5.8 17.6 2.8 5.6 6.5 10.6 10.9 15s9.5 8.1 15 10.9c5.4 2.7 11.2 4.6 17.6 5.8 6.5 1.2 12.9 1.5 18.4 1.6 2.4.1 5 .1 8.4.1h124.1c3.4 0 6-.1 8.4-.1 5.5-.1 11.9-.5 18.4-1.6 6.5-1.2 12.2-3.1 17.6-5.8 5.6-2.8 10.6-6.5 15-10.9s8.1-9.5 10.9-15c2.7-5.4 4.6-11.2 5.8-17.6 1.2-6.5 1.5-12.9 1.6-18.4.1-2.4.1-5 .1-8.4v-114.8c.3-3 .3-6.2.3-9.3zm-18.2 113.1v-50.2h16.4v50.2zm-243.6-102.2v50.2h-16.4v-50.2zm196.4 50.2c-.2-19.4-7.9-37.1-20.4-50.2h54.3c7.3 15.5 11.3 32.6 11.4 50.2zm-37.8-37.2c-6.3-6.1-14.2-10.7-22.9-13h36zm-73.6 73.6c-8.7-9-14.1-21.2-14.3-34.6h48.9zm34.6-36.4h-48.9c.2-13.4 5.7-25.6 14.4-34.6zm-33.3-35.9c9-8.7 21.2-14.1 34.6-14.4v48.9zm36.4-14.3c13.4.2 25.6 5.6 34.6 14.3l-34.6 34.6zm-37.7 13-13-13h36c-8.8 2.3-16.6 6.9-23 13zm-1.3 1.3c-6.1 6.3-10.7 14.2-13.1 22.9v-36zm0 73.6-13 13v-36c2.3 8.8 6.9 16.7 13 23zm1.3 1.3c6.3 6.1 14.1 10.6 22.8 13h-35.8zm1.3-1.3 34.6-34.6v48.9h-1.4c-12.9-.5-24.5-5.9-33.2-14.3zm36.4 14.3v-48.9l34.6 34.6c-8.7 8.4-20.3 13.7-33.2 14.3zm35.9-13 13 13h-35.8c8.8-2.3 16.5-6.9 22.8-13zm1.3-1.3c6.1-6.3 10.6-14.1 13-22.8v35.8zm-1.3-1.3-34.6-34.6h48.9v1.5c-.5 12.8-5.9 24.5-14.3 33.1zm14.3-36.4h-48.9l34.6-34.6c8.4 8.7 13.7 20.3 14.3 33.2zm-13-35.9 13-13v35.8c-2.3-8.7-6.9-16.5-13-22.8zm-37.2-16.2v-19.7c18.9.2 36.1 7.7 48.9 19.7zm-1.8 0h-48.9c12.8-12 30-19.5 48.8-19.7zm-52.1 52.1h-19.7c.2-18.9 7.7-36 19.7-48.8zm0 1.8v48.9c-12.1-12.8-19.5-30-19.7-48.9zm50.6 52.1h1.4v19.8c-18.9-.2-36.1-7.7-48.9-19.8zm3.3 0h49c-12.8 12.1-30 19.6-49 19.8zm52.1-50.6v-1.5h19.8c-.2 18.9-7.7 36.1-19.8 49zm0-3.3v-48.9c12.1 12.8 19.6 30 19.8 48.9zm1.3-52.1 31.1-31.1c9.1 9.3 16.6 19.8 22.2 31.1zm-1.3-1.3v-53.3c11.4 5.6 21.9 13 31.1 22.2zm-1.9 0c-13.2-12.4-30.8-20.1-50.2-20.3v-45.3c17.7.1 34.7 4 50.2 11.4zm-52-20.3c-19.4.2-37.1 7.9-50.2 20.4v-54.3c15.5-7.3 32.6-11.3 50.2-11.4zm-52.1 20.3-31.1-31.1c9.3-9.1 19.8-16.6 31.1-22.2zm-1.3 1.3h-53.3c5.6-11.3 13-21.8 22.2-31.1zm.1 1.9c-12.4 13.2-20.1 30.8-20.4 50.2h-45.3c.1-17.7 4.1-34.7 11.4-50.2zm-20.4 52c.2 19.4 7.9 37.1 20.3 50.2h-54.2c-7.3-15.5-11.2-32.6-11.4-50.2zm20.3 52.1-31.1 31.1c-9.1-9.3-16.6-19.8-22.2-31.1zm1.3 1.3v53.3c-11.4-5.6-21.9-13.1-31.1-22.2zm1.9 0c13.2 12.4 30.8 20.1 50.2 20.4v45.3c-17.7-.1-34.7-4.1-50.2-11.4zm52 20.3c19.4-.2 37.1-7.9 50.2-20.3v54.2c-15.5 7.3-32.6 11.2-50.2 11.4zm52.1-20.3 31.2 31.2c-9.3 9.1-19.8 16.6-31.2 22.2zm1.3-1.3h53.4c-5.6 11.4-13.1 21.9-22.2 31.2zm0-1.9c12.4-13.2 20.1-30.8 20.3-50.2h45.3c-.1 17.7-4 34.7-11.4 50.2zm56.3-102.2h9.4v29.9c-1.9-10.4-5-20.5-9.4-29.9zm-.9-1.9c-5.7-11.9-13.4-22.8-23-32.4l33.2-33.2v65.6zm-24.3-33.7c-9.6-9.5-20.6-17.2-32.4-22.9v-10.3h65.6zm-34.3-23.8c-9.6-4.4-19.7-7.6-30.2-9.4h30.2zm-50.2-11.3v-16.4h50.2v16.4zm-1.8 0h-50.2v-16.4h50.2zm-20 1.9c-10.5 1.8-20.7 5-30.2 9.4v-9.4zm-32.1 10.3c-11.8 5.7-22.8 13.4-32.4 22.9l-33.2-33.2h65.6zm-33.7 24.2c-9.5 9.6-17.2 20.6-22.9 32.4h-10.3v-65.6zm-23.8 34.3c-4.4 9.6-7.6 19.7-9.4 30.2v-30.2zm-11.3 52v50.2h-16.4v-50.2zm1.9 20.1c1.8 10.5 5 20.6 9.4 30.2h-9.4zm10.2 32c5.7 11.8 13.4 22.8 22.9 32.4l-33.2 33.2v-65.6zm24.3 33.7c9.6 9.5 20.6 17.2 32.4 23v10.3h-65.6zm34.3 23.9c9.5 4.4 19.5 7.6 29.9 9.4h-29.9zm50.2 11.2v16.4h-50.2v-16.4zm1.8 0h50.2v16.4h-50.2zm20.4-1.9c10.4-1.8 20.4-5 29.9-9.4v9.4zm31.7-10.2c11.9-5.7 22.8-13.4 32.5-23l33.2 33.2h-65.7zm33.8-24.2c9.5-9.7 17.2-20.6 23-32.5h10.2v65.6zm23.8-34.4c4.4-9.5 7.5-19.5 9.4-29.9v29.9zm11.2-52v-50.2h16.4v50.2zm14.6-87.6c1.1 6.4 1.4 12.7 1.6 18.1.1 2.4.1 5 .1 8.4v9h-16.4v-65.6c3.6 3.9 6.6 8.2 9 12.9 2.8 5.3 4.6 10.9 5.7 17.2zm-74.4-49.6c3.4 0 5.9.1 8.4.1 5.4.1 11.8.4 18.1 1.6 6.3 1.1 11.9 3 17.1 5.6 4.7 2.4 9.1 5.4 12.9 9h-65.5v-16.4h.5c2.9 0 5.7 0 8.5.1zm-167.7 7.3c5.2-2.7 10.8-4.5 17.1-5.6 6.4-1.2 12.8-1.5 18.2-1.6 2.4-.1 5-.1 8.4-.1h9v16.4h-65.6c3.9-3.7 8.2-6.7 12.9-9.1zm-32.3 60.4c.1-5.4.4-11.8 1.6-18.1 1.1-6.3 3-11.9 5.6-17.1 2.4-4.7 5.4-9 9-12.9v65.5h-16.4v-9c.1-3.4.1-6 .2-8.4zm1.6 158.9c-1.1-6.4-1.4-12.7-1.6-18.1-.1-2.4-.1-5-.1-8.4v-9h16.4v65.6c-3.6-3.9-6.6-8.2-9-12.9-2.8-5.3-4.6-10.9-5.7-17.2zm74.4 49.6c-3.4 0-6-.1-8.4-.1-5.4-.1-11.8-.4-18.1-1.6-6.3-1.1-11.9-3-17.1-5.6-4.7-2.4-9.1-5.4-12.9-9h65.5v16.4h-.1c-3.2 0-6 0-8.9-.1zm167.6-7.3c-5.2 2.7-10.8 4.5-17.1 5.6-6.4 1.1-12.7 1.4-18.1 1.6-2.4.1-5 .1-8.4.1h-9v-16.4h65.6c-3.9 3.7-8.2 6.7-13 9.1zm32.4-60.4c-.1 5.4-.4 11.8-1.6 18.1-1.1 6.3-3 11.9-5.6 17.1-2.4 4.7-5.4 9-9 12.9v-65.5h16.4v9c-.1 3.4-.1 6-.2 8.4z"/></svg>
