<svg width="100%" height="100%" viewBox="0 0 96 96" xmlns="http://www.w3.org/2000/svg"><g fill="none" fill-rule="evenodd"><path fill="#F1F3F4" d="M0 0h96v96H0z"/><path d="M66.103 29.078a1.875 1.875 0 0 1 .67 2.565l-4.568 7.805c7.296 4.41 12.378 12.115 13.183 21.053H20.612c.806-8.948 5.898-16.66 13.206-21.067l-4.56-7.79a1.875 1.875 0 0 1 3.149-2.031l.087.136 4.667 7.97A27.41 27.41 0 0 1 48 35.5c3.859 0 7.532.795 10.865 2.23l4.672-7.981a1.875 1.875 0 0 1 2.566-.671zM48 40.5c-9.746 0-18.125 6.225-21.223 15h42.446c-3.098-8.775-11.477-15-21.223-15zM35.5 48a2.5 2.5 0 1 1 0 5 2.5 2.5 0 0 1 0-5zm25 0a2.5 2.5 0 1 1 0 5 2.5 2.5 0 0 1 0-5z" opacity=".44" fill="#70757A"/></g></svg>
