<svg width="100%" height="100%" viewBox="0 0 128 126" fill="none" xmlns="http://www.w3.org/2000/svg">
<g clip-path="url(#clip0_5_15)">
<path fill-rule="evenodd" clip-rule="evenodd" d="M44.1403 21.1205C36.6081 22.6925 34.0958 32.0546 37.4129 46.1897C37.5374 46.72 37.6252 47.1665 37.6081 47.1819C37.591 47.1973 37.2108 47.3181 36.7631 47.4503C31.7726 48.9244 27.3349 50.9479 24.2002 53.1788C19.2867 56.6758 17.2069 60.8941 18.2721 65.2023C19.6117 70.6204 26.3698 75.5078 36.7631 78.5751C37.2108 78.7072 37.591 78.8279 37.6081 78.8433C37.6252 78.8587 37.5374 79.3052 37.4129 79.8355C35.2054 89.2423 35.5404 96.6349 38.3685 100.918C39.7433 103 41.5626 104.284 43.9758 104.875C44.6341 105.037 47.3793 105.071 48.227 104.929C52.9325 104.138 58.3193 100.903 64.1955 95.3382L64.8981 94.6729L65.5332 95.2777C71.3815 100.847 76.8407 104.133 81.5636 104.928C82.4298 105.074 85.1542 105.037 85.8427 104.869C93.2627 103.067 95.6716 93.8379 92.3769 79.8361C92.2522 79.3061 92.1644 78.86 92.1819 78.8448C92.1993 78.8295 92.6737 78.6795 93.2361 78.5114C103.538 75.4318 110.186 70.5926 111.518 65.2023C112.243 62.2713 111.503 59.3288 109.368 56.6495C106.475 53.0181 100.689 49.7416 93.2361 47.5138C92.6737 47.3457 92.1993 47.1956 92.1819 47.1804C92.1644 47.1652 92.2522 46.7191 92.3769 46.1891C95.6996 32.0682 93.1658 22.6472 85.6344 21.1195C84.9052 20.9716 82.4062 20.9576 81.5591 21.0966C76.9452 21.8542 71.5614 25.0698 65.7611 30.5326L64.8947 31.3485L64.1734 30.6641C58.3735 25.1604 52.8737 21.8588 48.2375 21.0976C47.4049 20.9609 44.8361 20.9753 44.1403 21.1205ZM45.3822 25.05C40.8832 25.6155 39.0773 31.4659 40.5027 40.8576C40.715 42.2565 41.491 46.0587 41.5856 46.1639C41.5927 46.1718 42.0366 46.0833 42.5721 45.9672C45.9127 45.243 50.4565 44.548 53.7593 44.2558C54.1374 44.2224 54.0753 44.2779 54.6701 43.4406C56.6391 40.6689 59.2102 37.4515 61.4235 34.9895L62.0548 34.2875L61.6281 33.8723C55.5273 27.9356 49.3053 24.5568 45.3822 25.05ZM82.6034 25.0688C78.7463 25.539 73.2267 28.9049 68.1641 33.8739L67.739 34.2911L68.3683 34.9914C70.4734 37.334 72.7604 40.1759 74.7064 42.8672C74.9696 43.2315 75.2334 43.5954 75.4977 43.9588L75.6862 44.2168L76.7707 44.3309C80.5077 44.7239 84.0044 45.2704 87.2202 45.9642C87.7567 46.0799 88.2006 46.169 88.2066 46.1621C88.2308 46.1347 88.6934 44.0829 88.8515 43.3022C89.8589 38.3265 90.0345 33.9068 89.3502 30.7469C88.4348 26.5195 86.1914 24.6314 82.6034 25.0688ZM64.3022 37.8861C63.3552 38.9429 62.4151 40.0512 61.3007 41.4246C60.7471 42.1069 59.4224 43.8275 59.4383 43.8435C59.4462 43.8514 59.893 43.8358 60.4313 43.8088C61.7047 43.7448 68.0519 43.7441 69.3605 43.8077C69.8995 43.8339 70.346 43.8498 70.3527 43.843C70.3815 43.8141 68.5905 41.5336 67.6123 40.3536C66.4691 38.9744 64.9662 37.2666 64.8958 37.2666C64.8746 37.2666 64.6075 37.5454 64.3022 37.8861ZM62.537 47.837C60.7849 47.8732 56.9318 48.0584 56.4948 48.1273C56.3423 48.1514 56.317 48.1837 55.6133 49.2509C52.9588 53.2767 50.2361 58.0342 48.2726 62.0781L47.8188 63.0126L48.2726 63.9471C50.2375 67.9939 52.9462 72.7268 55.6137 76.7743C56.317 77.8415 56.3423 77.8737 56.4948 77.8979C56.7195 77.9334 59.338 78.0823 60.6116 78.132C63.4618 78.2431 67.4343 78.2253 70.217 78.089C71.46 78.0281 73.162 77.9238 73.3139 77.8992C73.4356 77.8795 73.5115 77.7805 74.174 76.7766C76.8428 72.7324 79.628 67.8612 81.5602 63.8581L81.9731 63.0026L81.2829 61.6111C79.1731 57.3583 76.7668 53.1732 74.1748 49.2486C73.5116 48.2445 73.4359 48.1457 73.3141 48.126C73.1524 48.0998 71.3894 47.9928 70.1544 47.9343C67.9517 47.8298 64.82 47.7898 62.537 47.837ZM50.057 48.7976C47.5295 49.1542 43.1735 49.9382 42.7657 50.1099C42.6375 50.164 43.797 53.5308 44.9239 56.3766C45.515 57.8695 45.6521 58.1981 45.6743 58.1756C45.682 58.1679 45.9271 57.708 46.2191 57.1536C47.5398 54.6466 48.9954 52.1102 50.5019 49.6907C51.118 48.7013 51.1499 48.6451 51.0901 48.6525C51.0728 48.6546 50.608 48.7199 50.057 48.7976ZM78.6692 48.6741C78.6692 48.6902 78.7848 48.8848 78.9262 49.1065C80.3765 51.3808 82.3415 54.7931 83.6997 57.3956C83.9259 57.829 84.124 58.1692 84.1399 58.1516C84.1559 58.134 84.3485 57.6754 84.5679 57.1326C85.7927 54.1017 87.1657 50.1732 87.0225 50.1092C86.6294 49.9338 82.1151 49.1242 79.6951 48.795C79.2801 48.7385 78.8794 48.6816 78.8048 48.6685C78.7303 48.6555 78.6692 48.658 78.6692 48.6741ZM37.744 51.4166C29.1123 54.0802 23.5854 57.6746 22.3175 61.449C20.936 65.5616 25.2133 69.9305 33.9248 73.3047C35.1879 73.794 38.6917 74.9476 38.745 74.8918C38.7524 74.884 38.9411 74.32 39.1643 73.6386C40.2369 70.3632 41.3158 67.5601 42.7816 64.2403L43.3243 63.011L42.7765 61.7724C41.3228 58.4854 40.194 55.5467 39.1189 52.2501C38.9173 51.6322 38.7321 51.1281 38.7073 51.1299C38.6825 51.1317 38.249 51.2607 37.744 51.4166ZM90.4943 52.7751C89.4235 56.0036 88.2309 59.0627 86.7867 62.2855L86.4632 63.0073L87.0076 64.2385C88.4103 67.411 89.5905 70.4734 90.606 73.5756C90.8404 74.2917 91.0384 74.8841 91.0459 74.8921C91.0535 74.9 91.4696 74.7827 91.9705 74.6313C102.468 71.46 108.507 66.6519 107.657 62.1423C106.974 58.5199 102 54.8027 94.2796 52.1441C93.1122 51.7421 91.1673 51.1266 91.0645 51.1266C91.0516 51.1266 90.795 51.8684 90.4943 52.7751ZM45.5894 67.9956C44.7897 69.8725 43.5591 73.1963 42.9296 75.1795L42.7004 75.9015L43.0813 75.9898C44.1768 76.2441 46.6234 76.7033 48.2205 76.9544C49.2886 77.1224 51.0962 77.3724 51.1146 77.3547C51.1224 77.3472 50.8483 76.8908 50.5054 76.3404C49.0126 73.9439 47.5363 71.3701 46.1973 68.8296C45.9172 68.2983 45.6814 67.8568 45.6733 67.8486C45.6651 67.8403 45.6274 67.9064 45.5894 67.9956ZM83.9083 68.2305C82.4218 71.0877 80.4327 74.5561 78.921 76.9269C78.7768 77.1531 78.6658 77.3445 78.6744 77.3524C78.7078 77.3827 81.0299 77.0491 82.4883 76.8043C84.173 76.5217 86.8288 76.0015 87.0236 75.916C87.169 75.8522 85.7169 71.715 84.4867 68.6882C84.3117 68.2578 84.1556 67.8911 84.1397 67.8735C84.1237 67.8558 84.0196 68.0164 83.9083 68.2305ZM41.3589 80.7891C40.0199 86.4998 39.6827 91.487 40.3942 95.0586C41.5244 100.732 45.0589 102.374 50.8228 99.9029C54.0229 98.5308 58.1277 95.5854 61.628 92.1498L62.0546 91.731L61.5028 91.1163C60.2908 89.7661 59.5371 88.8849 58.4623 87.5616C57.2521 86.0717 55.7588 84.1115 54.6325 82.5345C54.3736 82.172 54.1398 81.8581 54.1128 81.837C54.086 81.8159 53.5662 81.7476 52.9579 81.6853C49.5229 81.3333 45.5989 80.7191 42.6013 80.0643C42.0732 79.949 41.6269 79.8546 41.6095 79.8546C41.5922 79.8546 41.4794 80.2751 41.3589 80.7891ZM87.2674 80.0457C84.321 80.703 80.5199 81.3001 76.7707 81.6943L75.6862 81.8084L75.4977 82.0664C75.2334 82.4298 74.9696 82.7937 74.7064 83.158C72.7674 85.8395 70.4352 88.737 68.3664 91.0346L67.7352 91.7356L68.4335 92.406C74.9231 98.6362 81.2655 101.835 85.1357 100.828C89.0198 99.8188 90.5762 94.1902 89.35 85.5876C89.0493 83.4776 88.2869 79.8491 88.1465 79.8594C88.1107 79.862 87.7151 79.9459 87.2674 80.0457ZM59.4498 82.2108C59.5089 82.3101 60.4532 83.5309 61.0709 84.3066C62.1902 85.7122 63.8881 87.7127 64.6178 88.4856L64.8953 88.7796L65.1726 88.4856C65.8847 87.7309 67.5413 85.7829 68.6373 84.4116C69.3333 83.5407 70.3677 82.1973 70.3534 82.1828C70.3469 82.1762 69.9472 82.1885 69.4653 82.2099C67.0941 82.3155 61.3237 82.297 59.7655 82.1786C59.4713 82.1563 59.4204 82.1615 59.4498 82.2108Z" fill="black"/>
</g>
<rect x="0.5" y="0.5" width="127" height="125" rx="26.5" stroke="black"/>
<defs>
<clipPath id="clip0_5_15">
<rect x="16" y="21" width="96" height="84" rx="25" fill="white"/>
</clipPath>
</defs>
</svg>
