<svg width="100%" height="100%" viewBox="0 0 96 96" fill="none" xmlns="http://www.w3.org/2000/svg">
<g clip-path="url(#clip0_0_7)">
<path d="M66.103 29.078C66.5319 29.3294 66.8434 29.7408 66.9691 30.2218C67.0947 30.7028 67.0242 31.214 66.773 31.643L62.205 39.448C69.501 43.858 74.583 51.563 75.388 60.501H20.612C21.418 51.553 26.51 43.841 33.818 39.434L29.258 31.644C29.0114 31.2268 28.9359 30.7303 29.0473 30.2587C29.1588 29.787 29.4485 29.3769 29.8558 29.1142C30.2631 28.8515 30.7563 28.7567 31.2319 28.8497C31.7075 28.9427 32.1287 29.2163 32.407 29.613L32.494 29.749L37.161 37.719C40.5856 36.2503 44.2737 35.4952 48 35.5C51.859 35.5 55.532 36.295 58.865 37.73L63.537 29.749C63.6614 29.5364 63.8264 29.3504 64.0227 29.2016C64.219 29.0528 64.4427 28.9442 64.681 28.8819C64.9193 28.8196 65.1675 28.8048 65.4115 28.8385C65.6555 28.8721 65.8905 28.9535 66.103 29.078ZM48 40.5C38.254 40.5 29.875 46.725 26.777 55.5H69.223C66.125 46.725 57.746 40.5 48 40.5ZM35.5 48C36.163 48 36.7989 48.2634 37.2678 48.7322C37.7366 49.2011 38 49.837 38 50.5C38 51.163 37.7366 51.7989 37.2678 52.2678C36.7989 52.7366 36.163 53 35.5 53C34.837 53 34.2011 52.7366 33.7322 52.2678C33.2634 51.7989 33 51.163 33 50.5C33 49.837 33.2634 49.2011 33.7322 48.7322C34.2011 48.2634 34.837 48 35.5 48ZM60.5 48C61.163 48 61.7989 48.2634 62.2678 48.7322C62.7366 49.2011 63 49.837 63 50.5C63 51.163 62.7366 51.7989 62.2678 52.2678C61.7989 52.7366 61.163 53 60.5 53C59.837 53 59.2011 52.7366 58.7322 52.2678C58.2634 51.7989 58 51.163 58 50.5C58 49.837 58.2634 49.2011 58.7322 48.7322C59.2011 48.2634 59.837 48 60.5 48Z" fill="black"/>
<path d="M66.103 29.078C66.5319 29.3294 66.8434 29.7408 66.9691 30.2218C67.0947 30.7028 67.0242 31.214 66.773 31.643L62.205 39.448C69.501 43.858 74.583 51.563 75.388 60.501H20.612C21.418 51.553 26.51 43.841 33.818 39.434L29.258 31.644C29.0114 31.2268 28.9359 30.7303 29.0473 30.2587C29.1588 29.787 29.4485 29.3769 29.8558 29.1142C30.2631 28.8515 30.7563 28.7567 31.2319 28.8497C31.7075 28.9427 32.1287 29.2163 32.407 29.613L32.494 29.749L37.161 37.719C40.5856 36.2503 44.2737 35.4952 48 35.5C51.859 35.5 55.532 36.295 58.865 37.73L63.537 29.749C63.6614 29.5364 63.8264 29.3504 64.0227 29.2016C64.219 29.0528 64.4427 28.9442 64.681 28.8819C64.9193 28.8196 65.1675 28.8048 65.4115 28.8385C65.6555 28.8721 65.8905 28.9535 66.103 29.078ZM48 40.5C38.254 40.5 29.875 46.725 26.777 55.5H69.223C66.125 46.725 57.746 40.5 48 40.5ZM35.5 48C36.163 48 36.7989 48.2634 37.2678 48.7322C37.7366 49.2011 38 49.837 38 50.5C38 51.163 37.7366 51.7989 37.2678 52.2678C36.7989 52.7366 36.163 53 35.5 53C34.837 53 34.2011 52.7366 33.7322 52.2678C33.2634 51.7989 33 51.163 33 50.5C33 49.837 33.2634 49.2011 33.7322 48.7322C34.2011 48.2634 34.837 48 35.5 48ZM60.5 48C61.163 48 61.7989 48.2634 62.2678 48.7322C62.7366 49.2011 63 49.837 63 50.5C63 51.163 62.7366 51.7989 62.2678 52.2678C61.7989 52.7366 61.163 53 60.5 53C59.837 53 59.2011 52.7366 58.7322 52.2678C58.2634 51.7989 58 51.163 58 50.5C58 49.837 58.2634 49.2011 58.7322 48.7322C59.2011 48.2634 59.837 48 60.5 48Z" stroke="black"/>
</g>
<rect x="0.5" y="0.5" width="95" height="95" rx="22.5" stroke="black"/>
<defs>
<clipPath id="clip0_0_7">
<rect width="96" height="96" rx="25" fill="white"/>
</clipPath>
</defs>
</svg>
