<svg height="651" viewBox="0 0 651 799" width="651" xmlns="http://www.w3.org/2000/svg"><path d="m630.285156 272.378906c-4.636718 3.59375-86.53125 49.699219-86.53125 152.210938 0 118.570312 104.207032 160.519531 107.324219 161.554687-.476563 2.558594-16.554687 57.449219-54.941406 113.378907-34.230469 49.21875-69.976563 98.359374-124.363281 98.359374-54.382813 0-68.378907-31.5625-131.15625-31.5625-61.183594 0-82.9375 32.601563-132.679688 32.601563-49.746094 0-84.457031-45.542969-124.363281-101.476563-46.226563-65.675781-83.574219-167.707031-83.574219-264.546874 0-155.324219 101.089844-237.703126 200.578125-237.703126 52.863281 0 96.929687 34.675782 130.121094 34.675782 31.589843 0 80.855469-36.753906 140.996093-36.753906 22.792969 0 104.6875 2.078124 158.589844 79.261718zm-187.140625-145.019531c24.871094-29.480469 42.464844-70.390625 42.464844-111.300781 0-5.671875-.476563-11.425782-1.519531-16.058594-40.464844 1.519531-88.613282 26.925781-117.640625 60.5625-22.792969 25.890625-44.066407 66.796875-44.066407 108.265625 0 6.234375 1.039063 12.464844 1.519532 14.460937 2.558594.480469 6.714844 1.039063 10.875 1.039063 36.308594 0 81.976562-24.289063 108.367187-56.96875zm0 0"/></svg>