<svg viewBox="0 0 16 16" xmlns="http://www.w3.org/2000/svg"><path d="m11 0c1.3 0 2.6.5 3.5 1.5 1 .9 1.5 2.2 1.5 3.5s-.5 2.6-1.4 3.5l-1.2 1.2c-.2.2-.5.3-.7.3s-.5-.1-.7-.3c-.4-.4-.4-1 0-1.4l1.1-1.2c.6-.5.9-1.3.9-2.1s-.3-1.6-.9-2.2c-1.1-1.1-3.1-1.1-4.2 0l-1.2 1.2c-.4.4-1 .4-1.4 0s-.4-1 0-1.4l1.2-1.1c.9-1 2.2-1.5 3.5-1.5zm-2.7 12c.4-.4 1-.5 1.4-.1s.4 1 0 1.4l-1.2 1.2c-.9 1-2.2 1.5-3.5 1.5s-2.6-.5-3.5-1.5c-1-.9-1.5-2.2-1.5-3.5s.5-2.6 1.5-3.5l1.1-1.2c.4-.4 1-.4 1.4 0s.4 1 0 1.4l-1.1 1.2c-.6.5-.9 1.3-.9 2.1s.3 1.6.9 2.2c1.1 1.1 3.1 1.1 4.2 0zm1.1-6.8c.4-.4 1-.4 1.4 0s.4 1 0 1.4l-4.2 4.2c-.2.2-.5.3-.7.3s-.5-.1-.7-.3c-.4-.4-.4-1 0-1.4z"/></svg>