<svg viewBox="0 0 16 16" xmlns="http://www.w3.org/2000/svg"><path d="m1.705 8.005a.75.75 0 0 1 .834.656 5.5 5.5 0 0 0 9.592 2.97l-1.204-1.204a.25.25 0 0 1 .177-.427h3.646a.25.25 0 0 1 .25.25v3.646a.25.25 0 0 1 -.427.177l-1.38-1.38a7.002 7.002 0 0 1 -12.143-3.853.75.75 0 0 1 .656-.834zm6.295-5.505a5.487 5.487 0 0 0 -4.131 1.869l1.204 1.204a.25.25 0 0 1 -.177.427h-3.646a.25.25 0 0 1 -.25-.25v-3.646a.25.25 0 0 1 .427-.177l1.38 1.38a7.002 7.002 0 0 1 12.143 3.853.75.75 0 0 1 -1.49.178 5.5 5.5 0 0 0 -5.46-4.838z"/></svg>