<?xml version="1.0" standalone="no"?>
<!DOCTYPE svg PUBLIC "-//W3C//DTD SVG 20010904//EN"
 "http://www.w3.org/TR/2001/REC-SVG-20010904/DTD/svg10.dtd">
<svg version="1.0" xmlns="http://www.w3.org/2000/svg"
 width="542.000000pt" height="542.000000pt" viewBox="0 0 542.000000 542.000000"
 preserveAspectRatio="xMidYMid meet">
<metadata>
Created by potrace 1.14, written by Peter Selinger 2001-2017
</metadata>
<g transform="translate(0.000000,542.000000) scale(0.100000,-0.100000)"
fill="#000000" stroke="none">
<path d="M2595 4819 c-100 -13 -185 -32 -185 -41 0 -4 -9 -8 -19 -8 -21 0
-164 -69 -169 -82 -2 -4 -10 -8 -18 -8 -8 0 -14 -4 -14 -10 0 -5 -6 -10 -14
-10 -8 0 -28 -13 -44 -30 -17 -16 -35 -30 -41 -30 -6 0 -11 -7 -11 -15 0 -8
-7 -15 -15 -15 -8 0 -15 -7 -15 -15 0 -8 -7 -15 -15 -15 -8 0 -15 -7 -15 -15
0 -8 -7 -15 -15 -15 -8 0 -15 -7 -15 -15 0 -8 -4 -15 -9 -15 -5 0 -13 -10 -17
-22 -3 -12 -17 -33 -30 -47 -13 -14 -24 -34 -24 -43 0 -10 -4 -18 -9 -18 -5 0
-12 -13 -16 -30 -4 -16 -11 -30 -15 -30 -5 0 -12 -16 -16 -35 -3 -19 -10 -35
-15 -35 -5 0 -9 -18 -9 -40 0 -27 -5 -43 -15 -46 -11 -4 -15 -21 -15 -56 0
-27 -6 -61 -14 -76 -11 -22 -15 -156 -20 -672 -4 -355 -11 -859 -16 -1120 -7
-322 -6 -494 1 -535 5 -33 14 -98 19 -145 10 -103 28 -192 41 -205 5 -5 9 -16
9 -25 0 -8 7 -28 15 -44 8 -15 15 -37 15 -47 0 -10 4 -20 9 -23 5 -4 20 -27
32 -54 13 -26 28 -52 33 -59 29 -33 36 -43 36 -49 0 -16 181 -185 219 -204 22
-12 41 -26 41 -31 0 -5 11 -9 25 -9 16 0 25 -6 25 -15 0 -8 9 -15 19 -15 11 0
32 -6 48 -14 59 -31 102 -46 126 -46 14 0 28 -4 31 -9 9 -14 233 -22 321 -12
120 14 179 27 183 40 2 6 16 11 32 11 16 0 35 7 44 15 8 8 24 15 35 15 11 0
24 6 28 13 4 7 19 17 33 23 14 6 46 28 73 48 26 20 49 36 52 36 6 0 95 87 95
93 0 3 13 19 30 37 16 18 30 38 30 45 0 7 7 15 15 19 8 3 15 12 15 21 0 8 3
15 8 15 9 0 42 58 42 75 0 7 7 18 15 25 8 7 15 23 15 36 0 12 7 29 15 38 8 8
15 30 15 48 0 19 5 39 12 46 6 6 15 38 20 69 4 32 12 78 17 103 13 60 13 2258
0 2360 -5 41 -13 103 -17 137 -4 34 -13 68 -20 75 -6 6 -12 26 -12 43 0 17 -7
40 -15 51 -8 10 -15 29 -15 40 0 12 -7 27 -15 34 -8 7 -15 19 -15 27 0 13 -28
63 -41 73 -3 3 -9 15 -13 28 -4 12 -12 22 -17 22 -5 0 -9 4 -9 10 0 20 -99
125 -175 185 -27 22 -51 43 -53 48 -2 4 -12 7 -22 7 -11 0 -23 6 -27 13 -11
16 -70 47 -93 47 -10 0 -20 7 -24 15 -3 8 -16 15 -30 15 -14 0 -27 4 -30 9 -3
4 -29 11 -58 15 -28 4 -59 11 -67 15 -24 13 -208 20 -276 10z m273 -315 c7 -8
20 -14 29 -14 19 0 75 -31 86 -47 4 -7 15 -13 22 -13 8 0 15 -5 15 -10 0 -6 8
-14 18 -17 19 -8 42 -28 42 -38 0 -8 43 -69 53 -73 11 -5 8 -32 -3 -32 -6 0
-13 7 -16 15 -4 8 -12 15 -20 15 -8 0 -14 7 -14 15 0 8 -5 15 -11 15 -7 0 -21
10 -33 23 -12 13 -27 22 -32 20 -6 -2 -17 3 -24 12 -7 8 -21 15 -32 15 -10 0
-16 5 -13 10 4 6 -9 10 -32 10 -22 0 -44 5 -50 11 -24 24 -318 -2 -347 -32 -6
-5 -20 -9 -33 -9 -13 0 -23 -4 -23 -8 0 -9 -48 -36 -64 -37 -14 0 -86 -72 -86
-84 0 -6 -4 -11 -10 -11 -5 0 -10 9 -10 20 0 11 5 20 10 20 6 0 10 7 10 15 0
34 81 127 123 141 9 3 17 9 17 14 0 4 11 11 25 14 14 4 25 11 25 16 0 6 13 10
29 10 16 0 31 6 34 14 11 28 287 27 315 0z m-38 -224 c3 -5 18 -12 33 -15 15
-4 27 -11 27 -16 0 -5 6 -9 13 -9 19 0 92 -71 113 -110 11 -19 23 -38 28 -41
28 -21 29 -220 0 -266 -8 -12 -14 -29 -14 -36 0 -8 -7 -20 -15 -27 -8 -7 -15
-20 -15 -30 0 -35 -165 -170 -209 -170 -11 0 -26 -6 -33 -13 -31 -31 -258 -27
-258 4 0 5 -5 9 -10 9 -6 0 -18 6 -26 13 -30 25 -84 78 -84 83 0 3 -11 17 -25
31 -13 15 -27 40 -30 55 -4 15 -11 30 -16 33 -12 8 -12 220 1 245 6 11 15 29
20 40 6 11 16 30 23 43 16 30 123 137 136 137 6 0 11 4 11 8 0 12 59 34 115
42 58 9 208 2 215 -10z m310 -581 c0 -23 -30 -79 -42 -79 -4 0 -8 -4 -8 -10 0
-5 -9 -19 -20 -30 -11 -11 -24 -20 -30 -20 -5 0 -10 -7 -10 -15 0 -8 -5 -15
-10 -15 -6 0 -21 -11 -34 -25 -13 -14 -33 -25 -45 -25 -12 0 -21 -6 -21 -15 0
-9 -9 -15 -22 -15 -13 0 -32 -7 -42 -15 -28 -21 -264 -21 -292 0 -10 8 -31 15
-45 15 -15 0 -29 7 -33 15 -3 8 -12 15 -21 15 -8 0 -27 10 -42 23 -75 63 -103
91 -103 103 0 8 -4 14 -10 14 -5 0 -10 7 -10 16 0 8 -7 22 -15 30 -8 9 -15 20
-15 25 0 19 16 8 40 -29 36 -53 120 -132 142 -132 10 0 18 -4 18 -10 0 -5 11
-12 25 -16 14 -3 25 -10 25 -15 0 -5 12 -9 28 -9 15 -1 38 -7 52 -15 34 -19
156 -19 194 0 15 8 43 15 61 15 18 0 35 3 37 8 2 4 21 16 43 27 42 20 83 58
125 113 14 18 33 43 43 54 9 12 17 25 17 30 0 4 5 8 10 8 6 0 10 -9 10 -21z
m-310 -374 c23 -8 53 -15 66 -15 13 0 24 -4 24 -10 0 -5 11 -12 25 -16 14 -3
25 -10 25 -14 0 -5 17 -19 38 -31 20 -13 46 -35 57 -49 11 -13 28 -33 38 -42
9 -10 17 -22 17 -28 0 -5 5 -10 10 -10 6 0 10 -11 10 -25 0 -14 7 -28 15 -31
8 -4 15 -14 15 -24 0 -10 7 -37 16 -61 21 -60 20 -289 -1 -332 -8 -17 -15 -42
-15 -57 0 -16 -7 -30 -15 -34 -8 -3 -15 -17 -15 -31 0 -14 -4 -25 -10 -25 -5
0 -10 -6 -10 -12 0 -7 -14 -27 -30 -45 -17 -18 -30 -37 -30 -42 0 -6 -6 -11
-14 -11 -8 0 -16 -6 -19 -12 -3 -7 -22 -22 -43 -33 -22 -11 -45 -26 -52 -32
-7 -7 -20 -13 -28 -13 -8 0 -14 -4 -14 -10 0 -5 -12 -10 -27 -10 -16 0 -41 -7
-57 -15 -32 -17 -171 -21 -181 -5 -3 5 -28 12 -55 16 -28 4 -50 10 -50 15 0 5
-9 9 -20 9 -10 0 -23 6 -27 13 -4 7 -27 21 -50 32 -24 11 -43 23 -43 28 0 4
-17 24 -39 45 -21 20 -41 47 -45 60 -4 12 -12 22 -17 22 -5 0 -9 13 -9 29 0
17 -6 31 -16 35 -9 3 -14 15 -12 28 4 29 22 26 26 -4 2 -13 10 -27 18 -31 8
-4 14 -15 14 -23 0 -8 11 -27 24 -42 14 -15 33 -37 44 -49 11 -13 22 -23 25
-23 3 0 18 -11 33 -25 15 -14 38 -28 51 -31 13 -4 23 -10 23 -15 0 -5 17 -9
38 -9 27 0 33 3 22 10 -8 5 -23 10 -33 10 -10 0 -24 6 -31 13 -8 6 -24 19 -37
27 -36 22 -109 101 -109 116 0 8 -7 14 -15 14 -9 0 -15 9 -15 24 0 14 -4 27
-9 30 -5 4 -12 24 -16 46 -4 22 -11 42 -16 46 -15 9 -10 123 8 178 26 81 46
126 55 126 4 0 8 5 8 11 0 21 133 139 157 139 7 0 13 5 13 10 0 6 11 10 24 10
13 0 29 7 36 15 10 12 37 15 120 15 83 0 110 -3 120 -15 7 -8 25 -15 41 -15
16 0 29 -4 29 -10 0 -5 7 -10 15 -10 8 0 23 -9 32 -20 10 -11 21 -20 26 -20
11 0 67 -59 67 -70 0 -6 5 -10 11 -10 5 0 15 -13 20 -30 6 -16 15 -30 20 -30
5 0 9 -10 9 -22 0 -13 7 -32 15 -42 22 -29 21 -248 0 -270 -8 -8 -15 -20 -15
-27 0 -23 -35 -88 -47 -89 -7 0 -13 -5 -13 -11 0 -11 -54 -69 -64 -69 -3 0
-15 -9 -26 -20 -11 -11 -27 -20 -35 -20 -8 0 -15 -4 -15 -9 0 -5 -15 -12 -32
-16 l-33 -8 29 -4 c16 -3 33 0 39 6 6 6 19 11 29 11 10 0 21 7 24 15 4 8 12
15 20 15 15 0 94 76 94 91 0 6 10 20 23 32 34 33 57 73 57 100 0 13 7 32 15
43 21 28 21 219 0 240 -8 9 -15 25 -15 36 0 56 -110 184 -187 217 -11 6 -24
15 -28 20 -3 6 -16 11 -29 11 -12 0 -26 4 -32 10 -5 5 -45 15 -88 21 -62 9
-97 9 -159 0 -73 -11 -94 -18 -137 -43 -8 -4 -27 -13 -42 -19 -16 -6 -28 -15
-28 -20 0 -5 -7 -9 -15 -9 -8 0 -15 -4 -15 -10 0 -5 -18 -27 -40 -47 -22 -21
-40 -46 -40 -56 0 -10 -7 -20 -15 -23 -8 -4 -15 -17 -15 -30 0 -12 -8 -27 -17
-33 -16 -8 -18 -26 -17 -145 1 -75 -2 -136 -7 -136 -5 0 -9 65 -9 145 0 90 4
145 10 145 6 0 10 18 10 40 0 22 4 40 8 40 5 0 14 19 21 43 17 58 34 97 43 97
5 0 8 5 8 10 0 13 63 80 75 80 4 0 18 11 31 25 13 14 32 25 44 25 11 0 23 7
26 15 4 9 19 15 38 15 18 0 36 4 42 9 25 24 192 28 254 6z m0 -1191 c25 -3 49
-13 53 -20 4 -8 19 -14 31 -14 13 0 26 -7 30 -15 3 -8 15 -15 26 -15 11 0 23
-7 26 -15 4 -8 11 -15 16 -15 33 0 157 -182 158 -232 0 -7 7 -22 15 -32 16
-22 21 -121 6 -130 -9 -6 -21 39 -21 79 0 12 -7 28 -15 35 -8 7 -15 23 -15 36
0 13 -4 24 -10 24 -5 0 -10 7 -10 15 0 8 -13 28 -30 45 -16 17 -30 35 -30 40
0 6 -4 10 -9 10 -6 0 -21 10 -34 23 -38 34 -145 87 -178 87 -16 0 -46 7 -66
15 -19 8 -50 15 -68 15 -18 0 -49 -7 -68 -15 -20 -8 -52 -15 -72 -15 -19 0
-35 -4 -35 -9 0 -5 -13 -12 -30 -16 -16 -4 -30 -10 -30 -14 0 -3 -20 -17 -45
-31 -25 -14 -45 -27 -45 -30 0 -3 -14 -21 -30 -40 -52 -59 -80 -111 -80 -145
0 -13 -5 -25 -12 -27 -6 -2 -15 -32 -19 -67 -8 -70 -11 -76 -35 -67 -12 5 -15
15 -11 49 8 66 26 140 37 151 6 6 10 20 10 33 0 13 3 23 8 23 4 0 18 24 32 53
24 52 98 137 119 137 6 0 11 6 11 14 0 8 14 17 30 21 17 4 30 11 30 16 0 5 11
9 24 9 13 0 29 7 36 15 7 8 27 15 44 16 17 0 40 5 51 10 20 9 118 5 205 -7z
m-29 -134 c35 -12 68 -25 73 -30 6 -6 15 -10 22 -10 24 0 134 -105 134 -127 0
-7 7 -13 15 -13 8 0 15 -6 15 -14 0 -7 7 -27 15 -42 8 -16 15 -36 15 -44 0 -9
5 -21 11 -27 14 -14 14 -189 1 -206 -6 -7 -13 -29 -17 -49 -4 -21 -10 -38 -14
-38 -3 0 -15 -19 -26 -41 -10 -23 -25 -44 -32 -46 -7 -3 -13 -10 -13 -17 0
-11 -59 -54 -92 -68 -10 -4 -18 -12 -18 -18 0 -5 -10 -10 -22 -10 -13 0 -32
-7 -42 -15 -28 -21 -233 -21 -260 0 -11 8 -30 15 -42 15 -12 0 -24 7 -28 15
-3 8 -12 15 -21 15 -8 0 -15 3 -15 8 0 4 -13 14 -29 23 -33 19 -111 120 -111
144 0 8 -4 15 -8 15 -21 0 -52 211 -34 233 5 7 13 28 16 47 9 46 56 141 73
147 7 3 13 11 13 19 0 8 4 14 9 14 5 0 29 18 52 40 24 22 50 40 59 40 9 0 21
5 27 11 17 17 125 48 169 48 23 1 70 -8 105 -19z m-568 -512 c3 -21 2 -38 -4
-38 -5 0 -9 19 -9 42 0 49 5 47 13 -4z m924 -80 c-3 -8 -6 -5 -6 6 -1 11 2 17
5 13 3 -3 4 -12 1 -19z m-887 -8 c0 -12 5 -26 10 -33 6 -7 26 -33 46 -59 19
-27 39 -48 44 -48 6 0 10 -7 10 -15 0 -8 7 -15 15 -15 9 0 18 -7 21 -15 4 -8
15 -15 25 -15 11 0 22 -7 25 -15 4 -8 16 -15 29 -15 13 0 25 -7 29 -15 3 -10
19 -15 46 -15 22 0 40 -5 40 -11 0 -23 270 6 278 30 2 6 12 11 22 11 9 0 23 7
30 15 7 8 16 15 21 15 13 0 99 85 99 98 0 7 7 12 15 12 8 0 15 7 15 15 0 8 7
15 15 15 8 0 15 7 15 15 0 8 5 15 10 15 31 0 -9 -69 -82 -142 -31 -32 -61 -58
-66 -58 -6 0 -12 -7 -16 -15 -3 -8 -15 -15 -26 -15 -11 0 -20 -4 -20 -9 0 -5
-12 -12 -27 -16 -15 -3 -31 -12 -35 -18 -5 -8 -50 -12 -141 -12 -133 0 -141 2
-220 41 -16 8 -35 14 -43 14 -8 0 -14 4 -14 9 0 6 -18 20 -40 32 -22 13 -40
29 -40 36 0 7 -6 13 -13 13 -8 0 -22 17 -33 38 -10 20 -25 41 -31 45 -7 4 -13
19 -13 31 0 13 -7 26 -15 30 -8 3 -15 15 -15 26 0 11 7 20 15 20 8 0 15 -9 15
-20z"/>
<path d="M2580 2310 c0 -6 46 -10 119 -10 69 0 122 4 126 10 4 6 -38 10 -119
10 -77 0 -126 -4 -126 -10z"/>
</g>
</svg>
